<svg xmlns="http://www.w3.org/2000/svg" width="500.03" height="500.03" viewBox="0 0 500.03 500.03"><path d="M250.02 31.86c-120.49 0-218.16 97.67-218.16 218.16 0 120.48 97.68 218.15 218.16 218.15 120.49 0 218.16-97.67 218.16-218.15 0-120.49-97.68-218.16-218.16-218.16m0 448.83c-127.4 0-230.68-103.28-230.68-230.67 0-127.4 103.28-230.67 230.68-230.67s230.68 103.27 230.68 230.67c-.01 127.4-103.29 230.67-230.68 230.67m0-480.69c-138.08 0-250.02 111.94-250.02 250.02s111.94 250.01 250.02 250.01 250.02-111.94 250.02-250.01c-.01-138.08-111.94-250.02-250.02-250.02" fill="#fd0"/><path d="M155.02 82.73c.06.97.22 1.48.46 1.63.45 1.51.37 3.78.68 5.74-.26.13-.5.29-.67.53-.76 1.03-.44 3.27-.44 4.83 0 3.12 1.9 5.66 4.24 5.71 2.96 11.33 11.03 19.48 20.54 19.48s17.57-8.15 20.54-19.48c2.35-.05 4.24-2.58 4.24-5.71 0-1.56.32-3.81-.44-4.83-.24-.32-.58-.52-.98-.65l-.01.03c.35-1.23.44-2.49.31-3.41-.05-.34.25-1.05.56-1.95.34-.45.54-1.25.59-2.48.04-.37.03-.73-.01-1.08-.27-11.61-11.27-20.95-24.81-20.95-13.72 0-24.84 9.58-24.84 21.39 0 .39.01.73.02 1.03l-.02.05.04.12m-37.53 180.78c6.84 0 12.38-5.53 12.38-12.37v-30.19h-24.76v30.19c0 6.83 5.54 12.37 12.38 12.37m124.68 0c6.83 0 12.38-5.53 12.38-12.37v-30.19h-24.75l.01 30.19c0 6.83 5.55 12.37 12.36 12.37m-43.82 198.45l241.09-103.77c8.42-14.71 15.17-30.49 20.01-47.1l-330.84 120.19c20.95 14.06 44.49 24.55 69.74 30.68m-73.76-156.43l-77.7 24.07c1.99 5.06 4.1 10.07 6.45 14.94l70.79-22.86c.14-10.3.24-14.19.46-16.15M129.88 167.51h7.03l-.07 123.25c19.97-12.46 59.31-19.48 81.62-19.93l2.17-.02c.49 0 .91.04 1.39.05l.05-103.36h7.73l.01 43.31h24.75v-43.31c0-24.44-19.63-42.68-51.03-42.68h-12.9v18.42h10.49v10.73h-42.49v-10.73h9.85v-18.42h-12.98c-34.6 0-50.39 18.16-50.39 42.68v43.31h24.76l.01-43.3zm124.98 131.21c2.27 4.66 1.59 4.66 0 6.94-10.12 7.84-13.19 16.6-13.19 16.6-3.3 12.27-10.35 19.99-30.46 17.27-51.49-6.94-68.88-29.89-68.88-29.89-1.09-1.7-.67-3.94 3.19-5.34 86.95-31.83 107.06-10.24 109.34-5.58m-117.53 8.64c-.13.39-.45 24.1-.45 24.1s21.82 28.76 81.26 32.63c18.75.44 24.55-8.87 26.82-16.59 2.27-7.73 15.11-18.53 15.79-19.33.68-.79-.45-26.82-.45-26.82s-6.36-18.31-41.59-17.62c-35.23.69-78.19 14.31-81.38 23.63m33.22 2.22c3.74 1.82 37.85 5.88 46.45 6.48 8.61.61 5.97 14.57 6.14 16.72.18 2.32 2.97 3.41 2.9 1.02 0-10.66 15.01-29.92 17.22-34.09 2.22-4.2-1.02-3.17-1.02-2.99 0 .17-10.33 8.1-17.91 11.41-7.59 3.32-52.74-.24-53.79 0-2.24.52.01 1.45.01 1.45M464.75 211.7c-.65-3.65-1.38-7.27-2.21-10.85l-94.71 29.34c2.67 2.5 5.04 5.94 6.67 10.65l90.25-29.14zm-167.87 40.46l-63.15 19.56c9.55 1.35 16.82 4.11 22.35 7.35l36.22-11.69c1.15-4.92 2.66-10.16 4.58-15.22m67.69 59.71h5.04c16.6 0 27.32-9.04 27.32-23.06-.01-13.88-10.42-25.77-23.48-27.76l7.73-7.73c.83-.84.83-2.19 0-3.02-.83-.83-2.18-.83-3.01 0l-10.07 10.08c-.1.1-.15.23-.23.34h-3.3c-4.17 0-8.2 1.11-11.9 3 2.59 9.45 3.84 18.54 3.84 23.43 0 8.66-2.88 15.91-7.91 20.99 4.41 2.41 9.88 3.73 15.97 3.73m.14-52.96c.16.04.34.07.51.07.46 0 .93-.16 1.3-.44.52-.4.82-1 .83-1.66.1-5.28.44-21.35-14.18-23.71-.98-.17-1.97.4-2.33 1.35-2.07 5.39-1.97 10.5.27 14.8 2.39 4.6 7.23 8.01 13.6 9.59m-41.39 52.96h4.47c14.84 0 24.44-9.7 24.44-24.73 0-13.72-8.17-45.79-20.82-51.15l9.29-9.28c.83-.84.83-2.18 0-3.02-.83-.84-2.18-.84-3.01 0l-10.92 10.91c-.16.16-.26.35-.36.54h-3.09c-14.7 0-24.44 37-24.44 51.99 0 15.03 9.6 24.74 24.44 24.74"/><path d="M106.03 413.84c4.48 3.94 9.09 7.73 13.88 11.3l342.23-124.18c1.16-4.87 2.17-9.8 3-14.79l-359.11 127.67z"/></svg>